# xmcd
#
# Track frame offsets:
#	150
#	22387
#	55775
#	77930
#	117135
#	142937
#	164779
#	203794
# Disc length: 3040 seconds
# Revision: 2
# Processed by: cddbd v1.5.2PL0 Copyright (c) Steve Scherf et al.
#
# Submitted via: libkcddb 0.31
#
DISCID=700bde08
DTITLE=Krzysztof Scieranski - No Radio
DYEAR=1992
DGENRE=Jazz
TTITLE0=No Radio
TTITLE1=Homeless Song
TTITLE2=Kici Borzolok
TTITLE3=Touching You
TTITLE4=Where Is That Girl
TTITLE5=Milk And Dry
TTITLE6=Landscape
TTITLE7=Coma
EXTD=YEAR: 1992
EXTT0=
EXTT1=
EXTT2=
EXTT3=
EXTT4=
EXTT5=
EXTT6=
EXTT7=
PLAYORDER=
